<svg width="17" height="16" viewBox="0 0 17 16" fill="none" xmlns="http://www.w3.org/2000/svg">
<path d="M15.8496 5.55171L11.1386 4.86705L9.03261 0.597614C8.97509 0.48072 8.88046 0.386091 8.76357 0.328571C8.4704 0.183845 8.11415 0.30445 7.96757 0.597614L5.86161 4.86705L1.15058 5.55171C1.02069 5.57027 0.901944 5.6315 0.811026 5.72427C0.701111 5.83725 0.640543 5.98923 0.64263 6.14684C0.644718 6.30445 0.70929 6.45478 0.822158 6.5648L4.23065 9.88794L3.42538 14.5804C3.4065 14.6896 3.41858 14.8018 3.46025 14.9045C3.50192 15.0071 3.57152 15.096 3.66115 15.1611C3.75079 15.2262 3.85686 15.2649 3.96736 15.2728C4.07786 15.2807 4.18836 15.2574 4.28632 15.2057L8.50009 12.9903L12.7139 15.2057C12.8289 15.2669 12.9625 15.2874 13.0905 15.2651C13.4134 15.2094 13.6305 14.9033 13.5748 14.5804L12.7695 9.88794L16.178 6.5648C16.2708 6.47388 16.332 6.35513 16.3506 6.22525C16.4007 5.90054 16.1743 5.59996 15.8496 5.55171Z" fill="black"/>
</svg>
